<svg id="Livello_1" data-name="Livello 1" xmlns="http://www.w3.org/2000/svg" xmlns:xlink="http://www.w3.org/1999/xlink" viewBox="0 0 28.63 28.63"><defs><style>.cls-1{fill:none;}.cls-2{fill:#5865f2;}.cls-3{clip-path:url(#clip-path);}.cls-4{fill:#fff;}</style><clipPath id="clip-path" transform="translate(-1.68 -1.68)"><rect class="cls-1" x="6.83" y="8.89" width="18.35" height="14.21"/></clipPath></defs><circle class="cls-2" cx="14.32" cy="14.32" r="14.32"/><g class="cls-3"><path class="cls-4" d="M22.36,10.16A15.2,15.2,0,0,0,18.62,9l-.06,0a10.32,10.32,0,0,0-.46,1,14.08,14.08,0,0,0-4.2,0,9.3,9.3,0,0,0-.47-1,.06.06,0,0,0-.06,0,15.13,15.13,0,0,0-3.73,1.16l0,0A15.47,15.47,0,0,0,6.9,20.62a.05.05,0,0,0,0,.05A15.18,15.18,0,0,0,11.51,23a0,0,0,0,0,.06,0,11.3,11.3,0,0,0,.94-1.52.06.06,0,0,0,0-.08,9,9,0,0,1-1.43-.69.05.05,0,0,1,0-.09l.28-.23a.06.06,0,0,1,.06,0,10.86,10.86,0,0,0,9.22,0,.06.06,0,0,1,.06,0l.29.23a.05.05,0,0,1,0,.09,9,9,0,0,1-1.43.69.06.06,0,0,0,0,.08A12.42,12.42,0,0,0,20.42,23a0,0,0,0,0,.06,0,15.11,15.11,0,0,0,4.59-2.31.08.08,0,0,0,0-.05,15.36,15.36,0,0,0-2.71-10.44A0,0,0,0,0,22.36,10.16ZM13,18.54a1.76,1.76,0,0,1-1.65-1.85A1.75,1.75,0,0,1,13,14.84a1.75,1.75,0,0,1,1.65,1.85A1.75,1.75,0,0,1,13,18.54Zm6.09,0a1.76,1.76,0,0,1-1.64-1.85,1.75,1.75,0,0,1,1.64-1.85,1.74,1.74,0,0,1,1.65,1.85A1.75,1.75,0,0,1,19.05,18.54Z" transform="translate(-1.68 -1.68)"/></g></svg>